<?xml version="1.0" encoding="UTF-8" standalone="no"?>
<svg
   viewBox="0 0 16 16"
   version="1.1"
   id="svg18"
   sodipodi:docname="ZoomPanel.svg"
   inkscape:version="1.1.1 (3bf5ae0d25, 2021-09-20)"
   inkscape:label="ZoomPanel"
   inkscape:export-filename="C:\Users\moravek\Desktop\ZoomPanel.png"
   inkscape:export-xdpi="768"
   inkscape:export-ydpi="768"
   xmlns:inkscape="http://www.inkscape.org/namespaces/inkscape"
   xmlns:sodipodi="http://sodipodi.sourceforge.net/DTD/sodipodi-0.dtd"
   xmlns="http://www.w3.org/2000/svg"
   xmlns:svg="http://www.w3.org/2000/svg"
   xmlns:rdf="http://www.w3.org/1999/02/22-rdf-syntax-ns#"
   xmlns:cc="http://creativecommons.org/ns#"
   xmlns:dc="http://purl.org/dc/elements/1.1/">
  <sodipodi:namedview
     id="namedview20"
     pagecolor="#505050"
     bordercolor="#ffffff"
     borderopacity="1"
     inkscape:pageshadow="0"
     inkscape:pageopacity="0"
     inkscape:pagecheckerboard="1"
     showgrid="false"
     inkscape:zoom="32"
     inkscape:cx="4.703125"
     inkscape:cy="10.765625"
     inkscape:window-width="1920"
     inkscape:window-height="1017"
     inkscape:window-x="-8"
     inkscape:window-y="-8"
     inkscape:window-maximized="1"
     inkscape:current-layer="level-1" />
  <defs
     id="defs4">
    <style
       id="style2">.canvas{fill: none; opacity: 0;}.light-defaultgrey-10{fill: #212121; opacity: 0.1;}.light-defaultgrey{fill: #212121; opacity: 1;}.light-blue{fill: #005dba; opacity: 1;}</style>
  </defs>
  <title
     id="title6">IconZoomPanel</title>
  <g
     id="level-1"
     transform="translate(0.5)"
     inkscape:label="ZoomPanel"
     inkscape:groupmode="layer"
     style="display:inline">
    <path
       class="light-defaultgrey-10"
       d="m 13.5,1.5 v 13 h -12 v -13 z"
       id="path11"
       inkscape:label="Backgrouond"
       style="display:inline;opacity:0.25;fill:#212121;fill-opacity:1"
       inkscape:export-filename="C:\Users\moravek\Desktop\path11.png"
       inkscape:export-xdpi="768"
       inkscape:export-ydpi="768" />
    <path
       class="light-blue"
       d="m 3.7394884,5.6154519 8.758e-4,2.0085842 H 2.5 V 4.1201821 L 3.1201821,3.5 h 3.503854 V 4.7403642 L 4.6154519,4.7394884 6.6240361,6.7480726 5.7480726,7.6240361 Z M 10.384547,4.7394884 8.3759632,6.7480726 9.2519267,7.6240361 11.26051,5.6154519 11.259635,7.6240361 H 12.5 V 4.1201821 L 11.879817,3.5 H 8.3759632 V 4.7403642 Z M 4.6154519,12.26051 6.6240361,10.251927 5.7480726,9.3759632 3.7394884,11.384548 3.7403642,9.3759632 H 2.5 V 12.879817 L 3.1201821,13.5 h 3.503854 V 12.259635 Z M 12.5,9.3759632 H 11.259635 L 11.26051,11.384548 9.2519267,9.3759632 8.3759632,10.251927 10.384547,12.26051 8.3759632,12.259635 V 13.5 H 11.879817 L 12.5,12.879817 Z"
       id="path15"
       style="display:inline;stroke-width:1.2388"
       inkscape:label="Arrows" />
    <path
       class="light-defaultgrey"
       d="M 13.5,1 H 1.5 L 1,1.5 v 13 L 1.5,15 h 12 L 14,14.5 V 1.5 Z M 13,14 H 2 V 3 h 11 z"
       id="path13"
       inkscape:label="Window"
       style="display:inline" />
  </g>
  <metadata
     id="metadata106">
    <rdf:RDF>
      <cc:Work
         rdf:about="">
        <dc:title>IconZoomPanel</dc:title>
      </cc:Work>
    </rdf:RDF>
  </metadata>
</svg>
